<mxfile host="Electron" modified="2024-03-09T19:13:04.331Z" agent="Mozilla/5.0 (X11; Linux x86_64) AppleWebKit/537.36 (KHTML, like Gecko) draw.io/23.1.5 Chrome/120.0.6099.291 Electron/28.2.5 Safari/537.36" etag="2Nel8vuY0qZQne028PTT" version="23.1.5" type="device">
  <diagram name="Strona-1" id="OV4mZrAFO6_xKFco6DVv">
    <mxGraphModel dx="5410" dy="3469" grid="1" gridSize="10" guides="1" tooltips="1" connect="1" arrows="1" fold="1" page="1" pageScale="1" pageWidth="827" pageHeight="1169" math="0" shadow="0">
      <root>
        <mxCell id="0" />
        <mxCell id="1" parent="0" />
        <mxCell id="Mt6CTlnOpknhvCUXhLSx-1" style="edgeStyle=orthogonalEdgeStyle;rounded=0;orthogonalLoop=1;jettySize=auto;html=1;" parent="1" source="Mt6CTlnOpknhvCUXhLSx-2" edge="1">
          <mxGeometry relative="1" as="geometry">
            <mxPoint x="-2375" y="-2170" as="targetPoint" />
          </mxGeometry>
        </mxCell>
        <mxCell id="Mt6CTlnOpknhvCUXhLSx-2" value="App started" style="shape=note2;boundedLbl=1;whiteSpace=wrap;html=1;size=25;verticalAlign=top;align=center;" parent="1" vertex="1">
          <mxGeometry x="-2680" y="-2200" width="120" height="60" as="geometry" />
        </mxCell>
        <mxCell id="Mt6CTlnOpknhvCUXhLSx-3" value="" style="ellipse;" parent="1" vertex="1">
          <mxGeometry x="-2375" y="-2185" width="30" height="30" as="geometry" />
        </mxCell>
        <mxCell id="Mt6CTlnOpknhvCUXhLSx-4" style="edgeStyle=orthogonalEdgeStyle;rounded=0;orthogonalLoop=1;jettySize=auto;html=1;entryX=0.512;entryY=-0.003;entryDx=0;entryDy=0;entryPerimeter=0;" parent="1" target="Mt6CTlnOpknhvCUXhLSx-14" edge="1">
          <mxGeometry relative="1" as="geometry">
            <mxPoint x="-2360" y="-1935" as="sourcePoint" />
          </mxGeometry>
        </mxCell>
        <mxCell id="Mt6CTlnOpknhvCUXhLSx-5" style="edgeStyle=orthogonalEdgeStyle;rounded=0;orthogonalLoop=1;jettySize=auto;html=1;entryX=0.5;entryY=0;entryDx=0;entryDy=0;" parent="1" target="Mt6CTlnOpknhvCUXhLSx-12" edge="1">
          <mxGeometry relative="1" as="geometry">
            <mxPoint x="-2270" y="-1960" as="sourcePoint" />
          </mxGeometry>
        </mxCell>
        <mxCell id="Mt6CTlnOpknhvCUXhLSx-6" style="edgeStyle=orthogonalEdgeStyle;rounded=0;orthogonalLoop=1;jettySize=auto;html=1;" parent="1" target="Mt6CTlnOpknhvCUXhLSx-9" edge="1">
          <mxGeometry relative="1" as="geometry">
            <mxPoint x="-2450" y="-1960" as="sourcePoint" />
          </mxGeometry>
        </mxCell>
        <mxCell id="Mt6CTlnOpknhvCUXhLSx-7" value="Start app" style="html=1;dashed=0;rounded=1;absoluteArcSize=1;arcSize=20;verticalAlign=middle;align=center;whiteSpace=wrap;" parent="1" vertex="1">
          <mxGeometry x="-2450" y="-1980" width="180" height="50" as="geometry" />
        </mxCell>
        <mxCell id="Mt6CTlnOpknhvCUXhLSx-8" style="edgeStyle=orthogonalEdgeStyle;rounded=0;orthogonalLoop=1;jettySize=auto;html=1;entryX=0.5;entryY=0;entryDx=0;entryDy=0;" parent="1" source="Mt6CTlnOpknhvCUXhLSx-9" target="Mt6CTlnOpknhvCUXhLSx-15" edge="1">
          <mxGeometry relative="1" as="geometry">
            <mxPoint x="-2360" y="-1590" as="targetPoint" />
            <Array as="points">
              <mxPoint x="-2582" y="-1660" />
              <mxPoint x="-2362" y="-1660" />
            </Array>
          </mxGeometry>
        </mxCell>
        <mxCell id="Mt6CTlnOpknhvCUXhLSx-9" value="Start mysql" style="rounded=1;whiteSpace=wrap;html=1;fontSize=12;glass=0;strokeWidth=1;shadow=0;" parent="1" vertex="1">
          <mxGeometry x="-2670" y="-1800" width="175" height="70" as="geometry" />
        </mxCell>
        <mxCell id="Mt6CTlnOpknhvCUXhLSx-10" style="edgeStyle=orthogonalEdgeStyle;rounded=0;orthogonalLoop=1;jettySize=auto;html=1;entryX=0.5;entryY=0;entryDx=0;entryDy=0;" parent="1" source="Mt6CTlnOpknhvCUXhLSx-12" target="Mt6CTlnOpknhvCUXhLSx-15" edge="1">
          <mxGeometry relative="1" as="geometry">
            <Array as="points">
              <mxPoint x="-2142" y="-1660" />
              <mxPoint x="-2362" y="-1660" />
            </Array>
          </mxGeometry>
        </mxCell>
        <mxCell id="Mt6CTlnOpknhvCUXhLSx-11" style="edgeStyle=orthogonalEdgeStyle;rounded=0;orthogonalLoop=1;jettySize=auto;html=1;entryX=0;entryY=0.5;entryDx=0;entryDy=0;" parent="1" source="Mt6CTlnOpknhvCUXhLSx-12" target="Mt6CTlnOpknhvCUXhLSx-20" edge="1">
          <mxGeometry relative="1" as="geometry" />
        </mxCell>
        <mxCell id="Mt6CTlnOpknhvCUXhLSx-12" value="Start rabbit" style="rounded=1;whiteSpace=wrap;html=1;fontSize=12;glass=0;strokeWidth=1;shadow=0;" parent="1" vertex="1">
          <mxGeometry x="-2230" y="-1800" width="175" height="70" as="geometry" />
        </mxCell>
        <mxCell id="Mt6CTlnOpknhvCUXhLSx-13" style="edgeStyle=orthogonalEdgeStyle;rounded=0;orthogonalLoop=1;jettySize=auto;html=1;entryX=0.5;entryY=0;entryDx=0;entryDy=0;" parent="1" source="Mt6CTlnOpknhvCUXhLSx-14" target="Mt6CTlnOpknhvCUXhLSx-15" edge="1">
          <mxGeometry relative="1" as="geometry" />
        </mxCell>
        <mxCell id="Mt6CTlnOpknhvCUXhLSx-14" value="Start redis" style="rounded=1;whiteSpace=wrap;html=1;fontSize=12;glass=0;strokeWidth=1;shadow=0;" parent="1" vertex="1">
          <mxGeometry x="-2450" y="-1800" width="175" height="70" as="geometry" />
        </mxCell>
        <mxCell id="Mt6CTlnOpknhvCUXhLSx-15" value="Start express" style="rounded=1;whiteSpace=wrap;html=1;fontSize=12;glass=0;strokeWidth=1;shadow=0;" parent="1" vertex="1">
          <mxGeometry x="-2450" y="-1590" width="175" height="70" as="geometry" />
        </mxCell>
        <mxCell id="Mt6CTlnOpknhvCUXhLSx-16" style="edgeStyle=orthogonalEdgeStyle;rounded=0;orthogonalLoop=1;jettySize=auto;html=1;entryX=0.5;entryY=0;entryDx=0;entryDy=0;" parent="1" source="Mt6CTlnOpknhvCUXhLSx-17" target="Mt6CTlnOpknhvCUXhLSx-44" edge="1">
          <mxGeometry relative="1" as="geometry" />
        </mxCell>
        <mxCell id="Mt6CTlnOpknhvCUXhLSx-17" value="Start websocket" style="rounded=1;whiteSpace=wrap;html=1;fontSize=12;glass=0;strokeWidth=1;shadow=0;" parent="1" vertex="1">
          <mxGeometry x="-2450" y="-1450" width="175" height="70" as="geometry" />
        </mxCell>
        <mxCell id="Mt6CTlnOpknhvCUXhLSx-18" style="edgeStyle=orthogonalEdgeStyle;rounded=0;orthogonalLoop=1;jettySize=auto;html=1;entryX=0.5;entryY=0;entryDx=0;entryDy=0;" parent="1" source="Mt6CTlnOpknhvCUXhLSx-15" target="Mt6CTlnOpknhvCUXhLSx-17" edge="1">
          <mxGeometry relative="1" as="geometry" />
        </mxCell>
        <mxCell id="Mt6CTlnOpknhvCUXhLSx-19" style="edgeStyle=orthogonalEdgeStyle;rounded=0;orthogonalLoop=1;jettySize=auto;html=1;entryX=0;entryY=0.5;entryDx=0;entryDy=0;" parent="1" source="Mt6CTlnOpknhvCUXhLSx-20" target="Mt6CTlnOpknhvCUXhLSx-23" edge="1">
          <mxGeometry relative="1" as="geometry" />
        </mxCell>
        <mxCell id="Mt6CTlnOpknhvCUXhLSx-20" value="Validate other services" style="rounded=1;whiteSpace=wrap;html=1;fontSize=12;glass=0;strokeWidth=1;shadow=0;" parent="1" vertex="1">
          <mxGeometry x="-1950" y="-1800" width="175" height="70" as="geometry" />
        </mxCell>
        <mxCell id="Mt6CTlnOpknhvCUXhLSx-21" style="edgeStyle=orthogonalEdgeStyle;rounded=0;orthogonalLoop=1;jettySize=auto;html=1;entryX=0;entryY=0.5;entryDx=0;entryDy=0;" parent="1" source="Mt6CTlnOpknhvCUXhLSx-23" target="Mt6CTlnOpknhvCUXhLSx-25" edge="1">
          <mxGeometry relative="1" as="geometry" />
        </mxCell>
        <mxCell id="Mt6CTlnOpknhvCUXhLSx-22" style="edgeStyle=orthogonalEdgeStyle;rounded=0;orthogonalLoop=1;jettySize=auto;html=1;entryX=0.5;entryY=0;entryDx=0;entryDy=0;" parent="1" source="Mt6CTlnOpknhvCUXhLSx-23" target="Mt6CTlnOpknhvCUXhLSx-31" edge="1">
          <mxGeometry relative="1" as="geometry" />
        </mxCell>
        <mxCell id="Mt6CTlnOpknhvCUXhLSx-23" value="Is service alive ?" style="rhombus;whiteSpace=wrap;html=1;shadow=0;fontFamily=Helvetica;fontSize=12;align=center;strokeWidth=1;spacing=6;spacingTop=-4;" parent="1" vertex="1">
          <mxGeometry x="-1660" y="-1825" width="130" height="120" as="geometry" />
        </mxCell>
        <mxCell id="Mt6CTlnOpknhvCUXhLSx-24" style="edgeStyle=orthogonalEdgeStyle;rounded=0;orthogonalLoop=1;jettySize=auto;html=1;" parent="1" source="Mt6CTlnOpknhvCUXhLSx-25" target="Mt6CTlnOpknhvCUXhLSx-29" edge="1">
          <mxGeometry relative="1" as="geometry" />
        </mxCell>
        <mxCell id="Mt6CTlnOpknhvCUXhLSx-25" value="Send heartBeat message and wait" style="rounded=1;whiteSpace=wrap;html=1;fontSize=12;glass=0;strokeWidth=1;shadow=0;" parent="1" vertex="1">
          <mxGeometry x="-1430" y="-1800" width="175" height="70" as="geometry" />
        </mxCell>
        <mxCell id="Mt6CTlnOpknhvCUXhLSx-26" value="No" style="text;html=1;align=center;verticalAlign=middle;resizable=0;points=[];autosize=1;strokeColor=none;fillColor=none;" parent="1" vertex="1">
          <mxGeometry x="-1510" y="-1800" width="40" height="30" as="geometry" />
        </mxCell>
        <mxCell id="Mt6CTlnOpknhvCUXhLSx-27" style="edgeStyle=orthogonalEdgeStyle;rounded=0;orthogonalLoop=1;jettySize=auto;html=1;entryX=0.5;entryY=1;entryDx=0;entryDy=0;" parent="1" source="Mt6CTlnOpknhvCUXhLSx-29" target="Mt6CTlnOpknhvCUXhLSx-31" edge="1">
          <mxGeometry relative="1" as="geometry">
            <Array as="points">
              <mxPoint x="-1065" y="-1510" />
              <mxPoint x="-1595" y="-1510" />
            </Array>
          </mxGeometry>
        </mxCell>
        <mxCell id="Mt6CTlnOpknhvCUXhLSx-28" style="edgeStyle=orthogonalEdgeStyle;rounded=0;orthogonalLoop=1;jettySize=auto;html=1;entryX=0;entryY=0.5;entryDx=0;entryDy=0;" parent="1" source="Mt6CTlnOpknhvCUXhLSx-29" target="Mt6CTlnOpknhvCUXhLSx-37" edge="1">
          <mxGeometry relative="1" as="geometry">
            <mxPoint x="-895" y="-1765" as="targetPoint" />
          </mxGeometry>
        </mxCell>
        <mxCell id="Mt6CTlnOpknhvCUXhLSx-29" value="&lt;br&gt;Did service responde ?" style="rhombus;whiteSpace=wrap;html=1;shadow=0;fontFamily=Helvetica;fontSize=12;align=center;strokeWidth=1;spacing=6;spacingTop=-4;" parent="1" vertex="1">
          <mxGeometry x="-1130" y="-1825" width="130" height="120" as="geometry" />
        </mxCell>
        <mxCell id="Mt6CTlnOpknhvCUXhLSx-30" style="edgeStyle=orthogonalEdgeStyle;rounded=0;orthogonalLoop=1;jettySize=auto;html=1;entryX=0.5;entryY=1;entryDx=0;entryDy=0;" parent="1" source="Mt6CTlnOpknhvCUXhLSx-31" target="Mt6CTlnOpknhvCUXhLSx-25" edge="1">
          <mxGeometry relative="1" as="geometry" />
        </mxCell>
        <mxCell id="Mt6CTlnOpknhvCUXhLSx-31" value="SetTimeout 5000 to revalidate" style="rounded=1;whiteSpace=wrap;html=1;fontSize=12;glass=0;strokeWidth=1;shadow=0;" parent="1" vertex="1">
          <mxGeometry x="-1682.5" y="-1620" width="175" height="70" as="geometry" />
        </mxCell>
        <mxCell id="Mt6CTlnOpknhvCUXhLSx-32" value="Yes" style="text;html=1;align=center;verticalAlign=middle;resizable=0;points=[];autosize=1;strokeColor=none;fillColor=none;" parent="1" vertex="1">
          <mxGeometry x="-1590" y="-1705" width="40" height="30" as="geometry" />
        </mxCell>
        <mxCell id="Mt6CTlnOpknhvCUXhLSx-33" value="Yes" style="text;html=1;align=center;verticalAlign=middle;resizable=0;points=[];autosize=1;strokeColor=none;fillColor=none;" parent="1" vertex="1">
          <mxGeometry x="-1060" y="-1705" width="40" height="30" as="geometry" />
        </mxCell>
        <mxCell id="Mt6CTlnOpknhvCUXhLSx-34" value="No" style="text;html=1;align=center;verticalAlign=middle;resizable=0;points=[];autosize=1;strokeColor=none;fillColor=none;" parent="1" vertex="1">
          <mxGeometry x="-990" y="-1800" width="40" height="30" as="geometry" />
        </mxCell>
        <mxCell id="Mt6CTlnOpknhvCUXhLSx-35" style="edgeStyle=orthogonalEdgeStyle;rounded=0;orthogonalLoop=1;jettySize=auto;html=1;entryX=-0.001;entryY=0.503;entryDx=0;entryDy=0;entryPerimeter=0;" parent="1" source="Mt6CTlnOpknhvCUXhLSx-37" target="Mt6CTlnOpknhvCUXhLSx-38" edge="1">
          <mxGeometry relative="1" as="geometry" />
        </mxCell>
        <mxCell id="Mt6CTlnOpknhvCUXhLSx-36" style="edgeStyle=orthogonalEdgeStyle;rounded=0;orthogonalLoop=1;jettySize=auto;html=1;entryX=0.5;entryY=0;entryDx=0;entryDy=0;" parent="1" source="Mt6CTlnOpknhvCUXhLSx-37" target="Mt6CTlnOpknhvCUXhLSx-25" edge="1">
          <mxGeometry relative="1" as="geometry">
            <Array as="points">
              <mxPoint x="-825" y="-1910" />
              <mxPoint x="-1342" y="-1910" />
            </Array>
          </mxGeometry>
        </mxCell>
        <mxCell id="Mt6CTlnOpknhvCUXhLSx-37" value="Did heartBeat failed 10 times ?" style="rhombus;whiteSpace=wrap;html=1;shadow=0;fontFamily=Helvetica;fontSize=12;align=center;strokeWidth=1;spacing=6;spacingTop=-4;" parent="1" vertex="1">
          <mxGeometry x="-890" y="-1825" width="130" height="120" as="geometry" />
        </mxCell>
        <mxCell id="Mt6CTlnOpknhvCUXhLSx-38" value="Service died. Deny actions targeting this service. Await resurrection" style="rounded=1;whiteSpace=wrap;html=1;fontSize=12;glass=0;strokeWidth=1;shadow=0;" parent="1" vertex="1">
          <mxGeometry x="-660" y="-1800" width="175" height="70" as="geometry" />
        </mxCell>
        <mxCell id="Mt6CTlnOpknhvCUXhLSx-39" value="Yes" style="text;html=1;align=center;verticalAlign=middle;resizable=0;points=[];autosize=1;strokeColor=none;fillColor=none;" parent="1" vertex="1">
          <mxGeometry x="-760" y="-1800" width="40" height="30" as="geometry" />
        </mxCell>
        <mxCell id="Mt6CTlnOpknhvCUXhLSx-40" value="No" style="text;html=1;align=center;verticalAlign=middle;resizable=0;points=[];autosize=1;strokeColor=none;fillColor=none;" parent="1" vertex="1">
          <mxGeometry x="-820" y="-1855" width="40" height="30" as="geometry" />
        </mxCell>
        <mxCell id="Mt6CTlnOpknhvCUXhLSx-41" style="edgeStyle=orthogonalEdgeStyle;rounded=0;orthogonalLoop=1;jettySize=auto;html=1;entryX=0.5;entryY=0;entryDx=0;entryDy=0;" parent="1" source="Mt6CTlnOpknhvCUXhLSx-42" target="Mt6CTlnOpknhvCUXhLSx-7" edge="1">
          <mxGeometry relative="1" as="geometry" />
        </mxCell>
        <mxCell id="Mt6CTlnOpknhvCUXhLSx-42" value="Run migrations&amp;nbsp;" style="html=1;dashed=0;rounded=1;absoluteArcSize=1;arcSize=20;verticalAlign=middle;align=center;whiteSpace=wrap;" parent="1" vertex="1">
          <mxGeometry x="-2450" y="-2090" width="180" height="50" as="geometry" />
        </mxCell>
        <mxCell id="Mt6CTlnOpknhvCUXhLSx-43" style="edgeStyle=orthogonalEdgeStyle;rounded=0;orthogonalLoop=1;jettySize=auto;html=1;entryX=0.501;entryY=-0.016;entryDx=0;entryDy=0;entryPerimeter=0;" parent="1" source="Mt6CTlnOpknhvCUXhLSx-3" target="Mt6CTlnOpknhvCUXhLSx-42" edge="1">
          <mxGeometry relative="1" as="geometry" />
        </mxCell>
        <mxCell id="Mt6CTlnOpknhvCUXhLSx-44" value="Wait for user input" style="rounded=1;whiteSpace=wrap;html=1;fontSize=12;glass=0;strokeWidth=1;shadow=0;" parent="1" vertex="1">
          <mxGeometry x="-2450" y="-1300" width="175" height="70" as="geometry" />
        </mxCell>
      </root>
    </mxGraphModel>
  </diagram>
</mxfile>
